# MagicaVoxel @ ephtracy

# material
mtllib Door.mtl
usemtl palette

# normals
vn -1 0 0
vn 1 0 0
vn 0 0 1
vn 0 0 -1
vn 0 -1 0
vn 0 1 0

# texcoords
vt 0.853516 0.5
vt 0.857422 0.5
vt 0.861328 0.5
vt 0.865234 0.5
vt 0.869141 0.5
vt 0.873047 0.5

# verts
v -5 0 0.5
v -5 0 -0.5
v -5 10 0.5
v -5 10 -0.5
v -4 10 0.5
v -4 10 -0.5
v -4 12 0.5
v -4 12 -0.5
v -3 12 0.5
v -3 12 -0.5
v -3 13 0.5
v -3 13 -0.5
v 2 5 1.5
v 2 5 0.5
v 2 5 -0.5
v 2 5 -1.5
v 2 6 1.5
v 2 6 0.5
v 2 6 -0.5
v 2 6 -1.5
v 3 5 1.5
v 3 5 0.5
v 3 5 -0.5
v 3 5 -1.5
v 3 6 1.5
v 3 6 0.5
v 3 6 -0.5
v 3 6 -1.5
v 3 12 0.5
v 3 12 -0.5
v 3 13 0.5
v 3 13 -0.5
v 4 10 0.5
v 4 10 -0.5
v 4 12 0.5
v 4 12 -0.5
v 5 0 0.5
v 5 0 -0.5
v 5 10 0.5
v 5 10 -0.5
v 2 5 1.5
v 2 6 1.5
v 3 5 1.5
v 3 6 1.5
v -5 0 0.5
v -5 10 0.5
v -4 1 0.5
v -4 3 0.5
v -4 4 0.5
v -4 7 0.5
v -4 10 0.5
v -4 12 0.5
v -3 1 0.5
v -3 2 0.5
v -3 3 0.5
v -3 4 0.5
v -3 7 0.5
v -3 9 0.5
v -3 10 0.5
v -3 12 0.5
v -3 13 0.5
v -2 2 0.5
v -2 4 0.5
v -2 6 0.5
v -2 7 0.5
v -2 9 0.5
v -2 10 0.5
v -2 11 0.5
v -2 12 0.5
v -1 1 0.5
v -1 2 0.5
v -1 4 0.5
v -1 6 0.5
v -1 7 0.5
v -1 10 0.5
v -1 11 0.5
v -1 12 0.5
v 0 1 0.5
v 0 2 0.5
v 0 4 0.5
v 0 5 0.5
v 0 6 0.5
v 0 8 0.5
v 0 11 0.5
v 1 2 0.5
v 1 4 0.5
v 1 5 0.5
v 1 7 0.5
v 1 8 0.5
v 1 11 0.5
v 2 2 0.5
v 2 4 0.5
v 2 5 0.5
v 2 6 0.5
v 2 9 0.5
v 2 11 0.5
v 3 5 0.5
v 3 6 0.5
v 3 8 0.5
v 3 9 0.5
v 3 10 0.5
v 3 11 0.5
v 3 12 0.5
v 3 13 0.5
v 4 1 0.5
v 4 6 0.5
v 4 8 0.5
v 4 10 0.5
v 4 12 0.5
v 5 0 0.5
v 5 10 0.5
v -5 0 -0.5
v -5 10 -0.5
v -4 1 -0.5
v -4 3 -0.5
v -4 4 -0.5
v -4 7 -0.5
v -4 10 -0.5
v -4 12 -0.5
v -3 1 -0.5
v -3 2 -0.5
v -3 3 -0.5
v -3 4 -0.5
v -3 7 -0.5
v -3 9 -0.5
v -3 10 -0.5
v -3 12 -0.5
v -3 13 -0.5
v -2 2 -0.5
v -2 4 -0.5
v -2 6 -0.5
v -2 7 -0.5
v -2 9 -0.5
v -2 10 -0.5
v -2 11 -0.5
v -2 12 -0.5
v -1 1 -0.5
v -1 2 -0.5
v -1 4 -0.5
v -1 6 -0.5
v -1 7 -0.5
v -1 10 -0.5
v -1 11 -0.5
v -1 12 -0.5
v 0 1 -0.5
v 0 2 -0.5
v 0 4 -0.5
v 0 5 -0.5
v 0 6 -0.5
v 0 8 -0.5
v 0 11 -0.5
v 1 2 -0.5
v 1 4 -0.5
v 1 5 -0.5
v 1 7 -0.5
v 1 8 -0.5
v 1 11 -0.5
v 2 2 -0.5
v 2 4 -0.5
v 2 5 -0.5
v 2 6 -0.5
v 2 9 -0.5
v 2 11 -0.5
v 3 5 -0.5
v 3 6 -0.5
v 3 8 -0.5
v 3 9 -0.5
v 3 10 -0.5
v 3 11 -0.5
v 3 12 -0.5
v 3 13 -0.5
v 4 1 -0.5
v 4 6 -0.5
v 4 8 -0.5
v 4 10 -0.5
v 4 12 -0.5
v 5 0 -0.5
v 5 10 -0.5
v 2 5 -1.5
v 2 6 -1.5
v 3 5 -1.5
v 3 6 -1.5
v -5 0 0.5
v 5 0 0.5
v -5 0 -0.5
v 5 0 -0.5
v 2 5 1.5
v 3 5 1.5
v 2 5 0.5
v 3 5 0.5
v 2 5 -0.5
v 3 5 -0.5
v 2 5 -1.5
v 3 5 -1.5
v 2 6 1.5
v 3 6 1.5
v 2 6 0.5
v 3 6 0.5
v 2 6 -0.5
v 3 6 -0.5
v 2 6 -1.5
v 3 6 -1.5
v -5 10 0.5
v -4 10 0.5
v 4 10 0.5
v 5 10 0.5
v -5 10 -0.5
v -4 10 -0.5
v 4 10 -0.5
v 5 10 -0.5
v -4 12 0.5
v -3 12 0.5
v 3 12 0.5
v 4 12 0.5
v -4 12 -0.5
v -3 12 -0.5
v 3 12 -0.5
v 4 12 -0.5
v -3 13 0.5
v 3 13 0.5
v -3 13 -0.5
v 3 13 -0.5

# faces
f 3/2/1 2/2/1 1/2/1
f 4/2/1 2/2/1 3/2/1
f 7/2/1 6/2/1 5/2/1
f 8/2/1 6/2/1 7/2/1
f 11/2/1 10/2/1 9/2/1
f 12/2/1 10/2/1 11/2/1
f 17/2/1 14/2/1 13/2/1
f 18/2/1 14/2/1 17/2/1
f 19/2/1 16/2/1 15/2/1
f 20/2/1 16/2/1 19/2/1
f 21/2/2 22/2/2 25/2/2
f 25/2/2 22/2/2 26/2/2
f 23/2/2 24/2/2 27/2/2
f 27/2/2 24/2/2 28/2/2
f 29/2/2 30/2/2 31/2/2
f 31/2/2 30/2/2 32/2/2
f 33/2/2 34/2/2 35/2/2
f 35/2/2 34/2/2 36/2/2
f 37/2/2 38/2/2 39/2/2
f 39/2/2 38/2/2 40/2/2
f 43/2/3 42/2/3 41/2/3
f 44/2/3 42/2/3 43/2/3
f 47/2/3 46/2/3 45/2/3
f 48/2/3 46/2/3 47/2/3
f 49/2/3 46/2/3 48/2/3
f 50/2/3 46/2/3 49/2/3
f 51/2/3 46/2/3 50/2/3
f 53/2/3 47/2/3 45/2/3
f 53/4/3 48/4/3 47/4/3
f 54/4/3 48/4/3 53/4/3
f 55/3/3 49/3/3 48/3/3
f 55/4/3 48/4/3 54/4/3
f 56/6/3 50/6/3 49/6/3
f 56/3/3 49/3/3 55/3/3
f 57/3/3 51/3/3 50/3/3
f 57/6/3 50/6/3 56/6/3
f 58/3/3 51/3/3 57/3/3
f 59/2/3 52/2/3 51/2/3
f 59/3/3 51/3/3 58/3/3
f 60/2/3 52/2/3 59/2/3
f 62/5/3 56/5/3 55/5/3
f 62/3/3 54/3/3 53/3/3
f 62/5/3 55/5/3 54/5/3
f 63/3/3 57/3/3 56/3/3
f 63/5/3 56/5/3 62/5/3
f 64/3/3 57/3/3 63/3/3
f 65/5/3 58/5/3 57/5/3
f 65/3/3 57/3/3 64/3/3
f 66/6/3 60/6/3 59/6/3
f 66/5/3 58/5/3 65/5/3
f 66/6/3 59/6/3 58/6/3
f 67/6/3 60/6/3 66/6/3
f 68/6/3 60/6/3 67/6/3
f 69/2/3 61/2/3 60/2/3
f 69/6/3 60/6/3 68/6/3
f 70/3/3 64/3/3 63/3/3
f 70/3/3 63/3/3 62/3/3
f 70/2/3 53/2/3 45/2/3
f 70/3/3 62/3/3 53/3/3
f 71/3/3 64/3/3 70/3/3
f 72/3/3 64/3/3 71/3/3
f 73/1/3 65/1/3 64/1/3
f 73/3/3 64/3/3 72/3/3
f 73/1/3 67/1/3 66/1/3
f 73/1/3 66/1/3 65/1/3
f 74/1/3 67/1/3 73/1/3
f 75/3/3 68/3/3 67/3/3
f 75/1/3 67/1/3 74/1/3
f 76/4/3 69/4/3 68/4/3
f 76/3/3 68/3/3 75/3/3
f 77/2/3 61/2/3 69/2/3
f 77/4/3 69/4/3 76/4/3
f 78/6/3 71/6/3 70/6/3
f 78/2/3 70/2/3 45/2/3
f 79/3/3 72/3/3 71/3/3
f 79/6/3 71/6/3 78/6/3
f 80/4/3 73/4/3 72/4/3
f 80/3/3 72/3/3 79/3/3
f 81/4/3 73/4/3 80/4/3
f 82/6/3 74/6/3 73/6/3
f 82/4/3 73/4/3 81/4/3
f 83/3/3 76/3/3 75/3/3
f 83/3/3 75/3/3 74/3/3
f 83/3/3 77/3/3 76/3/3
f 84/3/3 77/3/3 83/3/3
f 85/3/3 81/3/3 80/3/3
f 85/3/3 80/3/3 79/3/3
f 85/3/3 79/3/3 78/3/3
f 86/3/3 81/3/3 85/3/3
f 87/6/3 82/6/3 81/6/3
f 87/3/3 81/3/3 86/3/3
f 88/6/3 74/6/3 82/6/3
f 88/6/3 82/6/3 87/6/3
f 88/3/3 83/3/3 74/3/3
f 89/4/3 84/4/3 83/4/3
f 89/3/3 83/3/3 88/3/3
f 90/3/3 77/3/3 84/3/3
f 90/4/3 84/4/3 89/4/3
f 91/5/3 86/5/3 85/5/3
f 91/3/3 85/3/3 78/3/3
f 92/3/3 87/3/3 86/3/3
f 92/5/3 86/5/3 91/5/3
f 92/3/3 89/3/3 88/3/3
f 92/3/3 90/3/3 89/3/3
f 92/3/3 88/3/3 87/3/3
f 93/3/3 90/3/3 92/3/3
f 94/3/3 90/3/3 93/3/3
f 95/3/3 90/3/3 94/3/3
f 96/3/3 77/3/3 90/3/3
f 96/3/3 90/3/3 95/3/3
f 97/3/3 92/3/3 91/3/3
f 97/3/3 93/3/3 92/3/3
f 98/3/3 95/3/3 94/3/3
f 99/3/3 95/3/3 98/3/3
f 100/5/3 96/5/3 95/5/3
f 100/3/3 95/3/3 99/3/3
f 101/5/3 96/5/3 100/5/3
f 102/3/3 77/3/3 96/3/3
f 102/5/3 96/5/3 101/5/3
f 103/2/3 61/2/3 77/2/3
f 103/3/3 77/3/3 102/3/3
f 104/2/3 61/2/3 103/2/3
f 105/3/3 91/3/3 78/3/3
f 105/2/3 78/2/3 45/2/3
f 105/3/3 97/3/3 91/3/3
f 105/3/3 98/3/3 97/3/3
f 106/6/3 99/6/3 98/6/3
f 106/3/3 98/3/3 105/3/3
f 107/3/3 100/3/3 99/3/3
f 107/6/3 99/6/3 106/6/3
f 107/3/3 101/3/3 100/3/3
f 108/2/3 102/2/3 101/2/3
f 108/3/3 101/3/3 107/3/3
f 108/2/3 103/2/3 102/2/3
f 109/2/3 103/2/3 108/2/3
f 110/2/3 107/2/3 106/2/3
f 110/2/3 105/2/3 45/2/3
f 110/2/3 108/2/3 107/2/3
f 110/2/3 106/2/3 105/2/3
f 111/2/3 108/2/3 110/2/3
f 112/2/4 113/2/4 114/2/4
f 114/2/4 113/2/4 115/2/4
f 115/2/4 113/2/4 116/2/4
f 116/2/4 113/2/4 117/2/4
f 117/2/4 113/2/4 118/2/4
f 112/2/4 114/2/4 120/2/4
f 114/4/4 115/4/4 120/4/4
f 120/4/4 115/4/4 121/4/4
f 115/3/4 116/3/4 122/3/4
f 121/4/4 115/4/4 122/4/4
f 116/6/4 117/6/4 123/6/4
f 122/3/4 116/3/4 123/3/4
f 117/3/4 118/3/4 124/3/4
f 123/6/4 117/6/4 124/6/4
f 124/3/4 118/3/4 125/3/4
f 118/2/4 119/2/4 126/2/4
f 125/3/4 118/3/4 126/3/4
f 126/2/4 119/2/4 127/2/4
f 122/5/4 123/5/4 129/5/4
f 120/3/4 121/3/4 129/3/4
f 121/5/4 122/5/4 129/5/4
f 123/3/4 124/3/4 130/3/4
f 129/5/4 123/5/4 130/5/4
f 130/3/4 124/3/4 131/3/4
f 124/5/4 125/5/4 132/5/4
f 131/3/4 124/3/4 132/3/4
f 126/6/4 127/6/4 133/6/4
f 132/5/4 125/5/4 133/5/4
f 125/6/4 126/6/4 133/6/4
f 133/6/4 127/6/4 134/6/4
f 134/6/4 127/6/4 135/6/4
f 127/2/4 128/2/4 136/2/4
f 135/6/4 127/6/4 136/6/4
f 130/3/4 131/3/4 137/3/4
f 129/3/4 130/3/4 137/3/4
f 112/2/4 120/2/4 137/2/4
f 120/3/4 129/3/4 137/3/4
f 137/3/4 131/3/4 138/3/4
f 138/3/4 131/3/4 139/3/4
f 131/1/4 132/1/4 140/1/4
f 139/3/4 131/3/4 140/3/4
f 133/1/4 134/1/4 140/1/4
f 132/1/4 133/1/4 140/1/4
f 140/1/4 134/1/4 141/1/4
f 134/3/4 135/3/4 142/3/4
f 141/1/4 134/1/4 142/1/4
f 135/4/4 136/4/4 143/4/4
f 142/3/4 135/3/4 143/3/4
f 136/2/4 128/2/4 144/2/4
f 143/4/4 136/4/4 144/4/4
f 137/6/4 138/6/4 145/6/4
f 112/2/4 137/2/4 145/2/4
f 138/3/4 139/3/4 146/3/4
f 145/6/4 138/6/4 146/6/4
f 139/4/4 140/4/4 147/4/4
f 146/3/4 139/3/4 147/3/4
f 147/4/4 140/4/4 148/4/4
f 140/6/4 141/6/4 149/6/4
f 148/4/4 140/4/4 149/4/4
f 142/3/4 143/3/4 150/3/4
f 141/3/4 142/3/4 150/3/4
f 143/3/4 144/3/4 150/3/4
f 150/3/4 144/3/4 151/3/4
f 147/3/4 148/3/4 152/3/4
f 146/3/4 147/3/4 152/3/4
f 145/3/4 146/3/4 152/3/4
f 152/3/4 148/3/4 153/3/4
f 148/6/4 149/6/4 154/6/4
f 153/3/4 148/3/4 154/3/4
f 149/6/4 141/6/4 155/6/4
f 154/6/4 149/6/4 155/6/4
f 141/3/4 150/3/4 155/3/4
f 150/4/4 151/4/4 156/4/4
f 155/3/4 150/3/4 156/3/4
f 151/3/4 144/3/4 157/3/4
f 156/4/4 151/4/4 157/4/4
f 152/5/4 153/5/4 158/5/4
f 145/3/4 152/3/4 158/3/4
f 153/3/4 154/3/4 159/3/4
f 158/5/4 153/5/4 159/5/4
f 155/3/4 156/3/4 159/3/4
f 156/3/4 157/3/4 159/3/4
f 154/3/4 155/3/4 159/3/4
f 159/3/4 157/3/4 160/3/4
f 160/3/4 157/3/4 161/3/4
f 161/3/4 157/3/4 162/3/4
f 157/3/4 144/3/4 163/3/4
f 162/3/4 157/3/4 163/3/4
f 158/3/4 159/3/4 164/3/4
f 159/3/4 160/3/4 164/3/4
f 161/3/4 162/3/4 165/3/4
f 165/3/4 162/3/4 166/3/4
f 162/5/4 163/5/4 167/5/4
f 166/3/4 162/3/4 167/3/4
f 167/5/4 163/5/4 168/5/4
f 163/3/4 144/3/4 169/3/4
f 168/5/4 163/5/4 169/5/4
f 144/2/4 128/2/4 170/2/4
f 169/3/4 144/3/4 170/3/4
f 170/2/4 128/2/4 171/2/4
f 145/3/4 158/3/4 172/3/4
f 112/2/4 145/2/4 172/2/4
f 158/3/4 164/3/4 172/3/4
f 164/3/4 165/3/4 172/3/4
f 165/6/4 166/6/4 173/6/4
f 172/3/4 165/3/4 173/3/4
f 166/3/4 167/3/4 174/3/4
f 173/6/4 166/6/4 174/6/4
f 167/3/4 168/3/4 174/3/4
f 168/2/4 169/2/4 175/2/4
f 174/3/4 168/3/4 175/3/4
f 169/2/4 170/2/4 175/2/4
f 175/2/4 170/2/4 176/2/4
f 173/2/4 174/2/4 177/2/4
f 112/2/4 172/2/4 177/2/4
f 174/2/4 175/2/4 177/2/4
f 172/2/4 173/2/4 177/2/4
f 177/2/4 175/2/4 178/2/4
f 179/2/4 180/2/4 181/2/4
f 181/2/4 180/2/4 182/2/4
f 185/2/5 184/2/5 183/2/5
f 186/2/5 184/2/5 185/2/5
f 189/2/5 188/2/5 187/2/5
f 190/2/5 188/2/5 189/2/5
f 193/2/5 192/2/5 191/2/5
f 194/2/5 192/2/5 193/2/5
f 195/2/6 196/2/6 197/2/6
f 197/2/6 196/2/6 198/2/6
f 199/2/6 200/2/6 201/2/6
f 201/2/6 200/2/6 202/2/6
f 203/2/6 204/2/6 207/2/6
f 207/2/6 204/2/6 208/2/6
f 205/2/6 206/2/6 209/2/6
f 209/2/6 206/2/6 210/2/6
f 211/2/6 212/2/6 215/2/6
f 215/2/6 212/2/6 216/2/6
f 213/2/6 214/2/6 217/2/6
f 217/2/6 214/2/6 218/2/6
f 219/2/6 220/2/6 221/2/6
f 221/2/6 220/2/6 222/2/6
